<svg width="780" height="210" viewBox="0 0 780 210" fill="none" xmlns="http://www.w3.org/2000/svg" role="img" aria-label="Wombat">
  <defs>
    <linearGradient id="wombatWave" x1="34" y1="0" x2="206" y2="0" gradientUnits="userSpaceOnUse">
      <stop offset="0" stop-color="#FF6B4A"></stop>
      <stop offset="0.5" stop-color="#F2913C"></stop>
      <stop offset="1" stop-color="#16B7A6"></stop>
    </linearGradient>
  </defs>
  
  <g transform="translate(8 23) scale(0.8778)">
    <circle cx="34" cy="50" r="17" fill="url(#wombatWave)"></circle>
    <circle cx="206" cy="50" r="17" fill="url(#wombatWave)"></circle>
    <path d="M34 50 C 50 132 67 132 82 96 C 94 67 106 67 121 95 C 136 67 148 67 159 96 C 174 132 191 132 206 50" stroke="url(#wombatWave)" stroke-width="24" stroke-linecap="round" stroke-linejoin="round" fill="none"></path>
    <circle cx="97" cy="83" r="8.5" fill="#22282C"></circle>
    <circle cx="145" cy="83" r="8.5" fill="#22282C"></circle>
    <ellipse cx="121" cy="108" rx="16" ry="12" fill="#22282C"></ellipse>
  </g>
  
  <path fill="#22282C" fill-rule="nonzero" d="M263.00 140.76Q260.19 140.76 258.57 139.68Q256.95 138.60 256.25 137.19Q255.54 135.79 255.33 135.25L235.02 76.39Q233.62 71.85 234.59 69.64Q235.56 67.42 240.21 65.91Q243.23 64.94 245.12 65.05Q247.01 65.16 248.25 66.56Q249.50 67.96 250.47 70.99L263.97 111.06L275.31 71.53Q275.63 70.45 276.33 69.04Q277.04 67.64 278.66 66.56Q280.28 65.48 283.19 65.48Q286.54 65.48 288.21 66.67Q289.89 67.86 290.54 69.26Q291.18 70.66 291.51 71.42L302.96 111.27L316.35 71.10Q317.32 68.07 318.56 66.61Q319.80 65.16 321.80 64.94Q323.80 64.72 326.82 65.80Q330.06 66.99 331.36 68.29Q332.66 69.58 332.71 71.47Q332.76 73.36 331.90 76.39L311.60 135.25Q311.38 135.90 310.68 137.25Q309.98 138.60 308.41 139.68Q306.84 140.76 303.82 140.76Q300.90 140.76 299.18 139.46Q297.45 138.16 296.75 136.71Q296.04 135.25 295.83 134.71L283.41 94.42L270.99 134.71Q270.88 135.25 270.12 136.76Q269.37 138.27 267.69 139.51Q266.02 140.76 263.00 140.76ZM364.27 141.84Q359.20 141.84 354.17 139.84Q349.15 137.84 345.05 134.17Q340.94 130.50 338.57 125.37Q336.19 120.24 336.19 113.97Q336.19 108.14 338.35 103.12Q340.51 98.10 344.40 94.21Q348.29 90.32 353.31 88.11Q358.33 85.89 364.06 85.89Q371.83 85.89 378.15 89.62Q384.47 93.34 388.25 99.72Q392.03 106.09 392.03 113.86Q392.03 120.45 389.60 125.58Q387.17 130.71 383.12 134.38Q379.07 138.06 374.15 139.95Q369.24 141.84 364.27 141.84ZM364.06 125.53Q366.65 125.53 369.35 124.23Q372.05 122.94 373.88 120.34Q375.72 117.75 375.72 113.76Q375.72 110.30 374.21 107.71Q372.70 105.12 370.05 103.66Q367.40 102.20 363.95 102.20Q360.71 102.20 358.17 103.71Q355.63 105.22 354.07 107.87Q352.50 110.52 352.50 113.86Q352.50 117.75 354.28 120.40Q356.06 123.04 358.76 124.29Q361.46 125.53 364.06 125.53ZM405.61 140.97Q401.72 140.97 399.99 139.78Q398.26 138.60 397.94 136.76Q397.62 134.92 397.62 132.76L397.62 94.96Q397.62 92.80 397.99 91.02Q398.37 89.24 400.10 88.11Q401.83 86.97 405.82 86.97Q409.82 86.97 411.66 88.54Q413.49 90.10 413.49 93.67L412.09 94.86Q412.30 94.32 413.38 93.02Q414.46 91.72 416.19 90.32Q417.92 88.92 420.24 87.89Q422.56 86.86 425.26 86.86Q428.83 86.86 431.69 87.89Q434.55 88.92 436.87 90.91Q439.20 92.91 440.92 95.94Q442.44 93.78 444.60 91.72Q446.76 89.67 449.73 88.27Q452.70 86.86 456.37 86.86Q462.63 86.86 467.01 90.05Q471.38 93.24 473.65 99.18Q475.92 105.12 475.92 113.54L475.92 132.87Q475.92 134.92 475.54 136.81Q475.16 138.70 473.43 139.84Q471.70 140.97 467.71 140.97Q463.71 140.97 462.04 139.78Q460.36 138.60 459.99 136.71Q459.61 134.82 459.61 132.76L459.61 113.43Q459.61 110.08 458.85 107.82Q458.10 105.55 456.53 104.31Q454.96 103.06 452.59 103.06Q450.10 103.06 448.38 104.20Q446.65 105.33 445.78 107.65Q444.92 109.98 444.92 113.54L444.92 132.87Q444.92 135.03 444.38 136.92Q443.84 138.81 442.06 139.95Q440.28 141.08 436.39 140.97Q432.50 140.86 430.88 139.68Q429.26 138.49 428.94 136.60Q428.61 134.71 428.61 132.76L428.61 113.43Q428.61 110.08 427.86 107.76Q427.10 105.44 425.59 104.25Q424.08 103.06 421.59 103.06Q418.89 103.06 417.16 104.47Q415.44 105.87 414.63 108.19Q413.82 110.52 413.82 113.43L413.82 132.87Q413.82 135.03 413.44 136.87Q413.06 138.70 411.33 139.84Q409.60 140.97 405.61 140.97ZM512.39 140.86Q507.10 140.86 503.05 138.65Q499.00 136.44 496.35 132.66Q493.71 128.88 492.36 124.02Q491.01 119.16 491.12 113.65Q491.12 108.36 492.52 103.50Q493.92 98.64 496.57 94.96Q499.22 91.29 503.16 89.19Q507.10 87.08 512.39 87.08Q517.14 87.08 521.63 89.24Q526.11 91.40 529.56 95.13Q533.02 98.85 535.02 103.66Q537.02 108.46 537.02 113.76Q537.02 119.26 535.02 124.18Q533.02 129.09 529.56 132.87Q526.11 136.65 521.68 138.76Q517.25 140.86 512.39 140.86ZM510.12 124.88Q513.15 124.88 515.52 123.42Q517.90 121.96 519.36 119.48Q520.82 117.00 520.82 113.97Q520.82 110.84 519.41 108.41Q518.01 105.98 515.63 104.58Q513.26 103.17 510.23 103.17Q507.32 103.17 504.89 104.58Q502.46 105.98 501.11 108.41Q499.76 110.84 499.76 113.97Q499.76 117.00 501.16 119.48Q502.56 121.96 504.94 123.42Q507.32 124.88 510.12 124.88ZM491.33 140.97Q487.44 140.97 485.72 139.78Q483.99 138.60 483.61 136.71Q483.23 134.82 483.23 132.76L483.23 70.66Q483.23 68.40 483.66 66.56Q484.10 64.72 485.77 63.59Q487.44 62.46 491.44 62.46Q495.33 62.46 496.95 63.64Q498.57 64.83 498.89 66.72Q499.22 68.61 499.11 70.66L499.11 136.11Q498.57 138.60 496.84 139.78Q495.11 140.97 491.33 140.97ZM587.32 140.86Q583.32 140.86 581.43 139.46Q579.54 138.06 579.54 136.00L580.62 134.17Q579.97 135.25 578.14 136.81Q576.30 138.38 573.38 139.62Q570.47 140.86 566.15 140.86Q561.18 140.86 556.70 138.70Q552.22 136.54 548.76 132.71Q545.30 128.88 543.31 124.02Q541.31 119.16 541.31 113.76Q541.31 108.46 543.31 103.66Q545.30 98.85 548.81 95.13Q552.32 91.40 556.75 89.24Q561.18 87.08 566.15 87.08Q570.14 87.08 572.95 88.21Q575.76 89.35 577.65 90.86Q579.54 92.37 580.51 93.78L579.65 92.26Q579.54 89.67 581.43 88.32Q583.32 86.97 587.42 86.97Q591.31 86.97 592.99 88.16Q594.66 89.35 595.04 91.29Q595.42 93.24 595.42 95.40L595.42 132.66Q595.42 134.71 595.04 136.65Q594.66 138.60 592.99 139.73Q591.31 140.86 587.32 140.86ZM568.52 124.77Q571.33 124.77 573.65 123.31Q575.98 121.86 577.33 119.37Q578.68 116.89 578.68 113.86Q578.68 110.73 577.27 108.30Q575.87 105.87 573.49 104.41Q571.12 102.96 568.31 102.96Q565.18 102.96 562.75 104.47Q560.32 105.98 558.86 108.46Q557.40 110.95 557.40 114.08Q557.40 117.00 558.86 119.43Q560.32 121.86 562.85 123.31Q565.39 124.77 568.52 124.77ZM630.81 140.97Q625.30 140.97 621.36 139.78Q617.42 138.60 614.83 136.11Q612.24 133.63 610.99 129.79Q609.75 125.96 609.75 120.67L609.75 76.82Q609.75 74.66 610.13 72.93Q610.51 71.20 612.24 70.07Q613.96 68.94 617.85 68.94Q621.74 68.94 623.47 70.12Q625.20 71.31 625.57 73.15Q625.95 74.98 625.95 77.14L625.95 120.02Q625.95 121.75 626.22 122.88Q626.49 124.02 627.03 124.56Q627.57 125.10 628.54 125.31Q629.52 125.53 630.92 125.53Q633.30 125.53 635.13 125.96Q636.97 126.39 637.99 127.90Q639.02 129.42 639.02 132.98Q639.02 136.87 637.83 138.60Q636.64 140.32 634.75 140.65Q632.86 140.97 630.81 140.97ZM606.40 87.84L618.28 87.84L633.19 87.40Q635.24 87.40 637.08 87.78Q638.91 88.16 640.10 89.89Q641.29 91.62 641.29 95.61Q641.29 99.28 640.15 101.01Q639.02 102.74 637.18 103.23Q635.35 103.71 633.19 103.71L619.04 103.39L605.97 103.39Q602.84 103.28 601.60 101.50Q600.36 99.72 600.36 95.50Q600.36 91.62 601.87 89.73Q603.38 87.84 606.40 87.84Z"></path>
</svg>